<?xml version="1.0" ?><svg enable-background="new 0 0 200 200" id="Layer_1" version="1.1" viewBox="0 0 200 200" xml:space="preserve" xmlns="http://www.w3.org/2000/svg" xmlns:xlink="http://www.w3.org/1999/xlink"><g><linearGradient gradientUnits="userSpaceOnUse" id="SVGID_1_" x1="37.4189" x2="175.6866" y1="168.3026" y2="30.0348"><stop offset="1.274966e-07" style="stop-color:#12C2E9"/><stop offset="0.4754" style="stop-color:#C471ED"/><stop offset="1" style="stop-color:#F64F59"/></linearGradient><path d="M182.271,23.378c-6.637-6.636-17.854-8.463-31.584-5.144c-11.541,2.791-23.012,8.827-29.938,15.753   c-0.667,0.666-1.309,1.368-1.914,2.078c-0.1,0.089-0.204,0.163-0.303,0.263c-0.549,0.548-0.996,1.187-1.341,1.882   c-0.015,0.029-0.036,0.056-0.05,0.085c-0.002,0.003-0.004,0.006-0.006,0.01c-1,2.078-1.1,4.715-0.302,7.822   c0.446,1.773,1.19,3.714,2.203,5.786L73.856,97.091c-0.001,0.001-0.002,0.003-0.003,0.004l-61.848,61.849   c-1.367,1.366-1.367,3.583,0,4.949c0.684,0.684,1.58,1.025,2.475,1.025s1.792-0.342,2.475-1.025l56.456-56.456   c0.213,0.498,0.445,1.008,0.718,1.547c2.062,4.068,5.535,8.646,9.779,12.892c0.171,0.171,0.347,0.338,0.52,0.507   c-1.649,2.732-4.027,4.983-7.17,6.696c-7.306-0.075-14.306,2.403-19.323,6.982c-4.572,4.174-7.133,9.692-7.406,15.958   c-0.084,1.932,1.414,3.565,3.345,3.649c0.052,0.002,0.103,0.003,0.154,0.003c1.863,0,3.413-1.469,3.494-3.348   c0.19-4.365,1.964-8.201,5.132-11.093c3.817-3.484,9.51-5.413,15.243-5.129c0.598,0.031,1.195-0.097,1.732-0.365   c4.306-2.154,7.704-5.082,10.132-8.662c5.023,3.936,10.212,6.648,14.26,6.648c1.831,0,3.428-0.554,4.671-1.797l15.911-15.911   c0.354-0.24,0.661-0.548,0.91-0.91l13.53-13.53c0.353-0.24,0.659-0.547,0.908-0.908l13.531-13.531   c0.159-0.108,0.311-0.227,0.452-0.361c0.324,0.159,0.653,0.325,0.97,0.47c3.272,1.493,6.142,2.243,8.58,2.243   c1.027,0,1.977-0.133,2.849-0.399c0.004-0.001,0.007-0.003,0.011-0.004c0.003-0.001,0.006-0.001,0.009-0.002   c0.012-0.004,0.023-0.01,0.034-0.014c1.195-0.367,2.228-0.975,3.069-1.817c0.331-0.332,0.614-0.705,0.873-1.094   c0.452-0.408,0.905-0.819,1.337-1.251c6.927-6.926,12.962-18.399,15.751-29.942C190.735,41.233,188.907,30.016,182.271,23.378z    M164.656,81.808c-0.265,0.219-0.521,0.443-0.799,0.656c-0.023,0.002-0.038,0.008-0.062,0.01c-0.076,0.006-0.169,0.002-0.253,0.004   c-0.129,0.003-0.26,0.004-0.409-0.005c-0.124-0.008-0.264-0.026-0.401-0.043c-0.135-0.016-0.272-0.034-0.42-0.059   c-0.161-0.027-0.333-0.064-0.509-0.102c-0.154-0.034-0.313-0.072-0.479-0.115c-0.189-0.049-0.385-0.104-0.589-0.165   c-0.185-0.056-0.379-0.12-0.576-0.186c-0.208-0.07-0.418-0.142-0.64-0.225c-0.23-0.086-0.474-0.186-0.718-0.286   c-0.214-0.087-0.424-0.172-0.649-0.27c0.428-2.015,0.102-4.846-1.908-8.813c-2.062-4.068-5.535-8.646-9.779-12.891   c-4.245-4.245-8.823-7.718-12.892-9.78c-3.965-2.01-6.794-2.336-8.809-1.909c-0.51-1.164-0.904-2.255-1.148-3.226   c-0.408-1.589-0.334-2.441-0.231-2.847c0.097-0.122,0.197-0.245,0.296-0.367c2.154-0.988,12.633,2.84,25.353,15.559   C160.752,68.468,165.207,78.711,164.656,81.808z M136.076,94.642l-37.14-12.73l8.927-8.927l37.141,12.73L136.076,94.642z    M121.637,109.081l-37.14-12.73l8.927-8.927l37.14,12.73L121.637,109.081z M109.096,121.505c-0.231-0.537-0.486-1.081-0.767-1.631   c-0.027-0.053-0.056-0.107-0.084-0.16c-0.279-0.538-0.579-1.081-0.901-1.628c-0.037-0.063-0.075-0.126-0.113-0.189   c-0.323-0.541-0.665-1.084-1.027-1.629c-0.044-0.066-0.088-0.132-0.132-0.198c-0.365-0.545-0.748-1.091-1.148-1.636   c-0.047-0.064-0.094-0.128-0.141-0.192c-0.407-0.551-0.83-1.101-1.268-1.649c-0.045-0.056-0.089-0.112-0.134-0.168   c-0.449-0.558-0.912-1.113-1.388-1.663c-0.039-0.045-0.077-0.09-0.116-0.135c-0.386-0.445-0.782-0.886-1.183-1.324l15.433,5.289   l-6.994,6.994C109.122,121.559,109.107,121.531,109.096,121.505z M126.397,54.451c1.621-0.089,7.702,2.4,15.118,9.817   c7.418,7.417,9.911,13.506,9.817,15.118l-0.593,0.593l-0.225,0.225l-37.14-12.73L126.397,54.451z M90.857,112.37   c-1.786-0.26-3.429,0.89-3.868,2.596c-5.41-5.907-7.619-10.721-7.917-12.659c1.333,0.206,4.026,1.315,7.498,3.746   c0.049,0.034,0.097,0.068,0.146,0.103c0.285,0.202,0.577,0.414,0.872,0.634c0.105,0.078,0.211,0.158,0.317,0.239   c0.258,0.195,0.519,0.397,0.784,0.606c0.154,0.122,0.31,0.249,0.466,0.375c0.232,0.188,0.465,0.377,0.703,0.576   c0.202,0.17,0.408,0.349,0.614,0.527c0.204,0.176,0.406,0.349,0.612,0.532c0.261,0.232,0.526,0.478,0.792,0.722   c0.163,0.15,0.324,0.294,0.489,0.449c0.435,0.41,0.875,0.836,1.32,1.281c0.447,0.447,0.874,0.888,1.285,1.325   c0.134,0.143,0.258,0.281,0.389,0.423c0.27,0.292,0.54,0.584,0.794,0.871c0.146,0.164,0.283,0.325,0.424,0.488   c0.224,0.258,0.447,0.515,0.658,0.768c0.142,0.169,0.276,0.336,0.412,0.503c0.195,0.24,0.389,0.479,0.573,0.713   c0.131,0.167,0.257,0.331,0.383,0.496c0.174,0.228,0.345,0.454,0.509,0.676c0.119,0.161,0.235,0.321,0.348,0.479   c0.156,0.218,0.307,0.433,0.453,0.645c0.105,0.153,0.21,0.305,0.31,0.455c0.14,0.21,0.273,0.414,0.403,0.618   c0.091,0.142,0.184,0.286,0.271,0.425c0.127,0.204,0.245,0.402,0.362,0.599c0.075,0.127,0.154,0.257,0.225,0.381   c0.119,0.208,0.228,0.407,0.336,0.605c0.056,0.103,0.117,0.21,0.17,0.311c0.125,0.236,0.237,0.462,0.345,0.684   c0.026,0.054,0.058,0.113,0.083,0.166c0.129,0.27,0.245,0.527,0.35,0.772c0.034,0.079,0.059,0.149,0.091,0.225   c0.067,0.163,0.133,0.325,0.189,0.475c0.032,0.087,0.058,0.166,0.086,0.249c0.044,0.127,0.088,0.254,0.124,0.37   c0.025,0.081,0.044,0.156,0.065,0.232c0.029,0.105,0.057,0.209,0.079,0.304c0.016,0.07,0.028,0.135,0.041,0.2   c0.01,0.054,0.018,0.104,0.025,0.155c-1.712-0.265-5.652-2.014-10.602-6.123c0.422-1.361,0.748-2.778,0.96-4.256   C94.1,114.416,92.771,112.644,90.857,112.37z M180.612,53.321c-1.927,7.974-5.681,16.089-10.08,22.112   c-2.572-7.409-9.195-16.279-16.549-23.634c-7.361-7.36-16.395-14.057-23.869-16.6c6.033-4.433,14.198-8.221,22.217-10.16   c11.105-2.685,20.213-1.486,24.989,3.29C182.097,33.104,183.296,42.214,180.612,53.321z" fill="url(#SVGID_1_)"/><linearGradient gradientUnits="userSpaceOnUse" id="SVGID_2_" x1="53.3283" x2="191.596" y1="184.212" y2="45.9443"><stop offset="1.274966e-07" style="stop-color:#12C2E9"/><stop offset="0.4754" style="stop-color:#C471ED"/><stop offset="1" style="stop-color:#F64F59"/></linearGradient><path d="M67.838,160.336c-1.138-1.563-3.327-1.906-4.89-0.767c-1.562,1.138-1.905,3.327-0.767,4.89   l8.543,11.724c0.685,0.94,1.751,1.438,2.832,1.438c0.715,0,1.437-0.218,2.059-0.672c1.562-1.138,1.905-3.327,0.767-4.89   L67.838,160.336z" fill="url(#SVGID_2_)"/><linearGradient gradientUnits="userSpaceOnUse" id="SVGID_3_" x1="47.8706" x2="186.1383" y1="178.7725" y2="40.5048"><stop offset="1.274966e-07" style="stop-color:#12C2E9"/><stop offset="0.4754" style="stop-color:#C471ED"/><stop offset="1" style="stop-color:#F64F59"/></linearGradient><path d="M54.185,161.865c-0.018,0-0.035,0-0.053,0c-1.909,0-3.47,1.533-3.499,3.448l-0.215,14.505   c-0.029,1.933,1.515,3.522,3.448,3.552c0.018,0,0.035,0,0.053,0c1.909,0,3.47-1.533,3.499-3.448l0.215-14.505   C57.661,163.484,56.118,161.895,54.185,161.865z" fill="url(#SVGID_3_)"/><linearGradient gradientUnits="userSpaceOnUse" id="SVGID_4_" x1="38.5174" x2="176.7852" y1="169.4012" y2="31.1334"><stop offset="1.274966e-07" style="stop-color:#12C2E9"/><stop offset="0.4754" style="stop-color:#C471ED"/><stop offset="1" style="stop-color:#F64F59"/></linearGradient><path d="M45.993,159.569c-1.562-1.141-3.752-0.795-4.89,0.767l-8.543,11.724   c-1.138,1.563-0.795,3.752,0.767,4.89c0.622,0.454,1.344,0.672,2.059,0.672c1.081,0,2.146-0.499,2.832-1.438l8.543-11.724   C47.898,162.896,47.555,160.707,45.993,159.569z" fill="url(#SVGID_4_)"/><linearGradient gradientUnits="userSpaceOnUse" id="SVGID_5_" x1="-11.9211" x2="126.3466" y1="118.9626" y2="-19.3051"><stop offset="1.274966e-07" style="stop-color:#12C2E9"/><stop offset="0.4754" style="stop-color:#C471ED"/><stop offset="1" style="stop-color:#F64F59"/></linearGradient><path d="M17.124,89.807c-0.225,1.313,0.314,2.64,1.393,3.423c1.077,0.782,2.505,0.887,3.686,0.267   l13.485-7.09l13.485,7.09c0.512,0.269,1.071,0.402,1.628,0.402c0.726,0,1.448-0.226,2.058-0.668   c1.078-0.783,1.618-2.11,1.393-3.423l-2.576-15.016l10.91-10.634c0.954-0.93,1.297-2.321,0.886-3.588s-1.507-2.19-2.825-2.382   l-15.077-2.191l-6.742-13.661c-0.59-1.195-1.807-1.951-3.139-1.951s-2.549,0.756-3.139,1.951l-6.742,13.661l-15.077,2.191   c-1.318,0.191-2.414,1.115-2.825,2.382s-0.068,2.658,0.886,3.588l10.91,10.634L17.124,89.807z M18.754,64.095l9.88-1.436   c1.14-0.166,2.125-0.882,2.635-1.915l4.418-8.952l4.418,8.952c0.51,1.033,1.496,1.749,2.635,1.915l9.88,1.436l-7.149,6.968   c-0.825,0.804-1.202,1.962-1.007,3.098l1.688,9.84l-8.836-4.646c-0.51-0.268-1.069-0.402-1.629-0.402s-1.119,0.134-1.629,0.402   l-8.836,4.646l1.688-9.84c0.195-1.136-0.182-2.294-1.007-3.098L18.754,64.095z" fill="url(#SVGID_5_)"/><linearGradient gradientUnits="userSpaceOnUse" id="SVGID_6_" x1="-10.4807" x2="127.7871" y1="120.4031" y2="-17.8647"><stop offset="1.274966e-07" style="stop-color:#12C2E9"/><stop offset="0.4754" style="stop-color:#C471ED"/><stop offset="1" style="stop-color:#F64F59"/></linearGradient><path d="M66.233,35.342l-1.364,7.95c-0.225,1.313,0.314,2.64,1.393,3.423   c0.61,0.443,1.332,0.668,2.058,0.668c0.557,0,1.116-0.133,1.628-0.402l7.139-3.754l7.139,3.754   c1.178,0.619,2.607,0.516,3.686-0.267c1.078-0.783,1.618-2.11,1.393-3.423l-1.363-7.95l5.775-5.63   c0.954-0.93,1.297-2.321,0.886-3.588s-1.507-2.19-2.825-2.382l-7.982-1.16l-3.57-7.233c-0.59-1.195-1.807-1.951-3.139-1.951   c-1.333,0-2.549,0.756-3.139,1.951l-3.569,7.233l-7.982,1.16c-1.318,0.192-2.414,1.115-2.825,2.382s-0.068,2.658,0.886,3.588   L66.233,35.342z M73.207,29.246c1.14-0.166,2.125-0.882,2.635-1.915l1.245-2.523l1.246,2.523c0.51,1.033,1.496,1.749,2.635,1.915   l2.785,0.404l-2.015,1.964c-0.825,0.804-1.202,1.962-1.007,3.098l0.476,2.773l-2.491-1.31c-0.51-0.268-1.069-0.402-1.629-0.402   s-1.119,0.134-1.629,0.402l-2.49,1.31l0.476-2.773c0.195-1.135-0.182-2.294-1.007-3.098l-2.015-1.964L73.207,29.246z" fill="url(#SVGID_6_)"/><linearGradient gradientUnits="userSpaceOnUse" id="SVGID_7_" x1="81.5233" x2="219.7911" y1="212.4071" y2="74.1393"><stop offset="1.274966e-07" style="stop-color:#12C2E9"/><stop offset="0.4754" style="stop-color:#C471ED"/><stop offset="1" style="stop-color:#F64F59"/></linearGradient><path d="M158.681,140.847l-7.982-1.16l-3.569-7.232c-0.59-1.194-1.806-1.951-3.139-1.951   c-1.332,0-2.549,0.757-3.139,1.951l-3.57,7.232l-7.982,1.16c-1.318,0.191-2.414,1.115-2.825,2.383   c-0.412,1.267-0.068,2.657,0.886,3.588l5.776,5.629l-1.364,7.95c-0.225,1.313,0.314,2.641,1.393,3.424   c1.079,0.782,2.507,0.887,3.686,0.266l7.139-3.754l7.139,3.754c0.512,0.27,1.071,0.402,1.628,0.402   c0.726,0,1.448-0.226,2.058-0.668c1.078-0.783,1.618-2.11,1.393-3.424l-1.364-7.95l5.776-5.629   c0.954-0.931,1.297-2.321,0.886-3.588C161.094,141.962,159.999,141.038,158.681,140.847z M148.641,148.718   c-0.825,0.805-1.202,1.963-1.007,3.099l0.476,2.773l-2.49-1.31c-0.51-0.269-1.069-0.402-1.629-0.402s-1.119,0.134-1.629,0.402   l-2.49,1.31l0.476-2.773c0.195-1.136-0.182-2.294-1.007-3.099l-2.015-1.964l2.785-0.404c1.14-0.166,2.125-0.882,2.635-1.915   l1.246-2.523l1.245,2.523c0.51,1.033,1.495,1.749,2.635,1.915l2.785,0.404L148.641,148.718z" fill="url(#SVGID_7_)"/></g></svg>